<svg width="18" height="16" viewBox="0 0 18 16" fill="none" xmlns="http://www.w3.org/2000/svg">
<g clip-path="url(#clip0_3_363)">
<path d="M11.9125 4.69688L16.4031 5.35938C16.7749 5.41251 17.0874 5.67501 17.2062 6.03438C17.3249 6.39689 17.2281 6.79064 16.9593 7.05939L13.7031 10.2531L14.4718 14.8344C14.5343 15.2094 14.3812 15.5906 14.0687 15.8125C13.7593 16.0344 13.3499 16.0625 13.0156 15.8844L9.00308 13.7438L4.99371 15.8844C4.65621 16.0625 4.24683 16.0344 3.93746 15.8125C3.62808 15.5906 3.47183 15.2094 3.53746 14.8344L4.30621 10.2531L1.04934 7.05939C0.780275 6.79064 0.68465 6.39689 0.802775 6.03438C0.920587 5.67501 1.23215 5.41251 1.60684 5.35938L6.09371 4.69688L8.1062 0.561565C8.27183 0.217314 8.62183 -0.0012207 9.00308 -0.0012207C9.38745 -0.0012207 9.73745 0.217314 9.90308 0.561565L11.9125 4.69688Z" fill="white"/>
</g>
<defs>
<clipPath id="clip0_3_363">
<rect width="18" height="16" fill="white"/>
</clipPath>
</defs>
</svg>
